<?xml version="1.0" encoding="UTF-8"?>
<svg xmlns="http://www.w3.org/2000/svg" xmlns:xlink="http://www.w3.org/1999/xlink" width="8pt" height="8pt" viewBox="0 0 8 8" version="1.1">
<g id="surface1">
<path style=" stroke:none;fill-rule:nonzero;fill:rgb(212, 82, 82);fill-opacity:1;" d="M 7.261719 5.074219 L 5.105469 3.890625 L 7.261719 2.703125 C 7.445312 2.605469 7.507812 2.378906 7.40625 2.199219 L 7.109375 1.6875 C 7.007812 1.511719 6.78125 1.453125 6.605469 1.558594 L 4.496094 2.835938 L 4.546875 0.375 C 4.554688 0.167969 4.390625 0 4.183594 0 L 3.59375 0 C 3.386719 0 3.226562 0.167969 3.230469 0.375 L 3.28125 2.835938 L 1.175781 1.558594 C 1 1.453125 0.769531 1.511719 0.667969 1.6875 L 0.375 2.199219 C 0.269531 2.378906 0.335938 2.605469 0.515625 2.703125 L 2.671875 3.890625 L 0.515625 5.074219 C 0.335938 5.171875 0.269531 5.398438 0.375 5.578125 L 0.667969 6.089844 C 0.769531 6.265625 1 6.324219 1.175781 6.21875 L 3.28125 4.941406 L 3.230469 7.40625 C 3.226562 7.609375 3.386719 7.777344 3.59375 7.777344 L 4.183594 7.777344 C 4.390625 7.777344 4.554688 7.609375 4.546875 7.40625 L 4.496094 4.941406 L 6.605469 6.21875 C 6.78125 6.324219 7.007812 6.265625 7.109375 6.089844 L 7.40625 5.578125 C 7.507812 5.398438 7.445312 5.171875 7.261719 5.074219 Z M 7.261719 5.074219 "/>
</g>
</svg>
