<?xml version="1.0" standalone="no"?>
<!DOCTYPE svg PUBLIC "-//W3C//DTD SVG 20010904//EN"
 "http://www.w3.org/TR/2001/REC-SVG-20010904/DTD/svg10.dtd">
<svg version="1.0" xmlns="http://www.w3.org/2000/svg"
 width="386.000000pt" height="72.000000pt" viewBox="0 0 386.000000 72.000000"
 preserveAspectRatio="xMidYMid meet">
<metadata>
Created by potrace 1.16, written by Peter Selinger 2001-2019
</metadata>
<g transform="translate(0.000000,72.000000) scale(0.100000,-0.100000)"
fill="#000000" stroke="none">
<path d="M0 360 l0 -360 1930 0 1930 0 0 360 0 360 -1930 0 -1930 0 0 -360z
m61 273 c13 -17 13 -17 -6 -3 -11 8 -22 16 -24 17 -2 2 0 3 6 3 6 0 17 -8 24
-17z m439 -26 c-24 -22 -24 -22 -6 0 10 12 15 27 11 35 -7 10 -5 11 6 0 11
-10 9 -16 -11 -35z m-20 20 c0 -2 -12 -14 -27 -28 l-28 -24 24 28 c23 25 31
32 31 24z m-415 -27 c10 -11 16 -20 13 -20 -3 0 -13 9 -23 20 -10 11 -16 20
-13 20 3 0 13 -9 23 -20z m-25 -5 c7 -9 8 -15 2 -15 -5 0 -12 7 -16 15 -3 8
-4 15 -2 15 2 0 9 -7 16 -15z m22 -58 c-25 -26 -32 -42 -32 -73 0 -22 6 -46
13 -54 10 -12 9 -12 -6 -1 -11 9 -17 27 -17 54 0 33 7 48 32 74 18 18 34 33
37 33 3 0 -9 -15 -27 -33z m231 16 c-3 -7 -6 -13 -8 -13 -2 0 -5 6 -8 13 -3 8
1 14 8 14 7 0 11 -6 8 -14z m-59 -1 c2 -4 -14 -6 -36 -4 -31 3 -39 1 -33 -8 5
-9 4 -11 -3 -6 -24 14 -11 26 27 26 22 0 42 -3 45 -8z m166 0 c0 -4 -18 -6
-40 -4 -22 2 -40 6 -40 8 0 2 18 4 40 4 22 0 40 -3 40 -8z m958 -17 c-3 -3 -9
2 -12 12 -6 14 -5 15 5 6 7 -7 10 -15 7 -18z m-1084 -1 c3 -8 2 -12 -4 -9 -6
3 -10 10 -10 16 0 14 7 11 14 -7z m156 12 c0 -2 -8 -10 -17 -17 -16 -13 -17
-12 -4 4 13 16 21 21 21 13z m46 -28 c23 -27 24 -29 3 -10 -14 12 -28 20 -31
17 -2 -3 -5 2 -5 10 0 19 -2 20 33 -17z m213 18 c8 -9 11 -53 8 -132 l-3 -119
-2 122 c-1 67 -6 124 -11 127 -14 9 -42 -5 -34 -17 4 -6 1 -7 -7 -2 -10 6 -9
11 5 22 24 16 30 16 44 -1z m-538 -13 c13 -16 12 -17 -3 -4 -10 7 -18 15 -18
17 0 8 8 3 21 -13z m229 14 c0 -2 -17 -19 -37 -38 l-38 -34 34 38 c33 34 41
42 41 34z m1816 -48 c1 -44 1 -44 -3 -4 -3 22 -10 44 -16 48 -8 6 -7 7 3 4 10
-2 15 -18 16 -48z m-39 19 c-3 -8 -6 -5 -6 6 -1 11 2 17 5 13 3 -3 4 -12 1
-19z m-1941 3 c-3 -5 10 -23 29 -40 20 -17 32 -31 27 -31 -14 0 -73 66 -66 73
10 10 16 9 10 -2z m1101 -163 c-2 -35 -3 -9 -3 57 0 66 1 94 3 63 2 -32 2 -86
0 -120z m1020 120 c-2 -13 -4 -5 -4 17 -1 22 1 32 4 23 2 -10 2 -28 0 -40z
m-2159 -51 l47 -3 -52 -2 -53 -2 2 53 2 52 3 -47 4 -47 47 -4z m333 -11 c-15
-15 -21 -38 -24 -86 l-3 -65 -2 66 c-2 55 1 69 18 84 14 12 21 32 22 64 l1 46
4 -44 c3 -33 0 -48 -16 -65z m146 -89 c-2 -34 -3 -6 -3 63 0 69 1 97 3 63 2
-35 2 -91 0 -126z m-461 145 c1 -17 1 -18 -3 -3 -2 11 -14 22 -26 25 -18 3
-18 4 3 3 18 -2 25 -8 26 -25z m79 18 c3 -5 1 -10 -4 -10 -6 0 -11 5 -11 10 0
6 2 10 4 10 3 0 8 -4 11 -10z m124 -17 c-1 -16 -3 -21 -6 -11 -7 27 -33 31
-34 5 0 -12 -3 -16 -6 -9 -8 21 5 42 27 42 15 0 20 -6 19 -27z m1984 -13 c-3
-11 -9 -22 -13 -25 -12 -7 -7 29 5 37 14 10 14 10 8 -12z m949 13 c-6 -2 -10
-9 -7 -14 4 -5 -1 -6 -10 -2 -13 5 -14 7 -3 14 7 5 18 8 23 8 6 0 4 -3 -3 -6z
m-3090 -20 c10 -9 18 -21 18 -27 0 -6 -7 0 -16 12 -8 12 -20 20 -25 17 -5 -4
-9 -1 -9 4 0 16 11 14 32 -6z m71 -7 c-10 -13 -20 -22 -22 -20 -4 4 29 44 36
44 2 0 -4 -11 -14 -24z m610 17 c-7 -2 -21 -2 -30 0 -10 3 -4 5 12 5 17 0 24
-2 18 -5z m314 1 c-3 -3 -12 -4 -19 -1 -8 3 -5 6 6 6 11 1 17 -2 13 -5z m434
-21 l24 -28 -30 25 c-16 14 -32 26 -34 28 -2 1 0 2 6 2 5 0 20 -12 34 -27z
m98 13 c8 -9 11 -40 8 -83 l-3 -68 -2 72 c-2 57 -6 74 -19 82 -10 6 -13 11 -7
11 6 0 17 -6 23 -14z m140 0 c7 -8 11 -33 8 -58 l-4 -43 -1 47 c-1 33 -7 50
-19 57 -10 6 -13 11 -7 11 6 0 17 -6 23 -14z m148 8 c-3 -3 -12 -4 -19 -1 -8
3 -5 6 6 6 11 1 17 -2 13 -5z m187 -3 c3 -4 -4 -17 -17 -27 l-22 -19 18 21
c14 17 15 23 5 27 -9 4 -9 6 -1 6 6 1 14 -3 17 -8z m263 3 c-3 -3 -12 -4 -19
-1 -8 3 -5 6 6 6 11 1 17 -2 13 -5z m276 -1 c-7 -2 -21 -2 -30 0 -10 3 -4 5
12 5 17 0 24 -2 18 -5z m224 1 c-3 -3 -12 -4 -19 -1 -8 3 -5 6 6 6 11 1 17 -2
13 -5z m54 -8 c-6 -7 -9 -22 -5 -32 5 -18 5 -18 -6 -1 -9 14 -9 22 0 33 7 7
15 14 17 14 3 0 0 -6 -6 -14z m389 -1 c19 -22 8 -25 -12 -3 -10 10 -14 18 -9
18 5 0 14 -7 21 -15z m337 9 c-3 -3 -12 -4 -19 -1 -8 3 -5 6 6 6 11 1 17 -2
13 -5z m-2817 -19 c19 -22 8 -25 -12 -3 -10 10 -14 18 -9 18 5 0 14 -7 21 -15z
m301 -2 c13 -16 12 -17 -3 -4 -10 7 -18 15 -18 17 0 8 8 3 21 -13z m119 13 c0
-2 -8 -10 -17 -17 -16 -13 -17 -12 -4 4 13 16 21 21 21 13z m335 -5 c-3 -5 -1
-12 5 -16 5 -3 10 -35 10 -71 0 -36 5 -75 11 -87 10 -21 10 -21 -5 -3 -11 14
-16 41 -16 87 0 43 -4 69 -12 71 -10 4 -4 28 8 28 3 0 3 -4 -1 -9z m142 -6 c0
-8 -4 -15 -9 -15 -10 0 -11 14 -1 23 9 10 10 9 10 -8z m138 5 c-3 -5 3 -10 14
-10 11 0 23 -4 26 -10 3 -6 -1 -7 -9 -4 -9 3 -24 3 -33 -1 -25 -11 -46 -15
-38 -7 4 4 12 7 18 7 7 0 13 6 13 13 2 19 4 22 10 22 3 0 2 -4 -1 -10z m94
-34 c-1 -20 -2 -20 -6 -1 -3 11 -10 27 -17 35 -10 13 -9 13 7 1 9 -7 16 -23
16 -35z m41 40 c0 -2 -8 -10 -17 -17 -16 -13 -17 -12 -4 4 13 16 21 21 21 13z
m140 0 c0 -2 -8 -10 -17 -17 -16 -13 -17 -12 -4 4 13 16 21 21 21 13z m175 -6
c-3 -5 3 -10 14 -10 11 0 22 -4 25 -9 4 -5 -3 -7 -14 -4 -11 3 -28 -1 -37 -8
-15 -12 -16 -12 -8 1 6 8 10 18 11 23 3 15 4 17 10 17 3 0 2 -4 -1 -10z m94
-34 c-1 -20 -2 -20 -6 -1 -3 11 -10 27 -17 35 -10 13 -9 13 7 1 9 -7 16 -23
16 -35z m282 27 c13 -16 12 -17 -3 -4 -17 13 -22 21 -14 21 2 0 10 -8 17 -17z
m455 -70 c1 -78 0 -80 -3 -18 -2 39 -9 73 -16 77 -9 6 -8 10 3 18 8 5 15 10
16 10 0 0 0 -39 0 -87z m74 83 c0 -2 -8 -10 -17 -17 -16 -13 -17 -12 -4 4 13
16 21 21 21 13z m-2510 -10 c0 -2 -8 -10 -17 -17 -16 -13 -17 -12 -4 4 13 16
21 21 21 13z m1848 -16 c-7 -10 -14 -17 -17 -15 -4 4 18 35 25 35 2 0 -1 -9
-8 -20z m242 17 c0 -2 -12 -14 -27 -28 l-28 -24 24 28 c23 25 31 32 31 24z
m613 -9 c-4 -7 -8 -16 -8 -20 0 -5 -4 -8 -10 -9 -5 0 -17 -6 -25 -12 -8 -6 -2
3 14 21 31 33 43 42 29 20z m174 -1 c0 -8 -6 -14 -14 -14 -9 0 -10 4 -2 14 6
7 12 13 14 13 1 0 2 -6 2 -13z m-3647 -22 c13 -14 21 -25 18 -25 -2 0 -15 11
-28 25 -13 14 -21 25 -18 25 2 0 15 -11 28 -25z m1090 22 c0 -2 -10 -12 -22
-23 l-23 -19 19 23 c18 21 26 27 26 19z m274 -6 c3 -4 -6 -6 -19 -3 -14 2 -25
6 -25 8 0 8 39 4 44 -5z m156 2 c-8 -3 -22 -11 -30 -17 -13 -10 -13 -9 -1 7 7
9 21 17 30 16 13 0 14 -1 1 -6z m1401 -10 c12 -16 12 -17 -1 -7 -8 7 -24 14
-35 17 -19 4 -19 5 1 6 12 0 28 -7 35 -16z m193 8 c4 -5 -3 -7 -14 -4 -11 3
-28 -1 -38 -8 -15 -13 -16 -12 -3 4 14 18 46 23 55 8z m573 3 c-3 -3 -12 -4
-19 -1 -8 3 -5 6 6 6 11 1 17 -2 13 -5z m-3357 -10 c-37 -8 -88 -9 -84 -2 3 4
26 7 52 7 26 -1 40 -3 32 -5z m493 -27 c31 -4 31 -5 -3 -3 -23 1 -35 6 -36 16
0 8 1 10 3 3 2 -6 19 -14 36 -16z m310 26 c-7 -2 -19 -2 -25 0 -7 3 -2 5 12 5
14 0 19 -2 13 -5z m428 -10 c13 -16 12 -17 -3 -4 -10 7 -18 15 -18 17 0 8 8 3
21 -13z m556 -80 c-2 -21 -4 -6 -4 32 0 39 2 55 4 38 2 -18 2 -50 0 -70z m105
-5 c2 -31 0 -54 -4 -51 -5 2 -7 39 -7 81 2 80 6 68 11 -30z m940 70 c-8 -8 -9
-4 -5 13 4 13 8 18 11 10 2 -7 -1 -18 -6 -23z m351 25 c-7 -2 -19 -2 -25 0 -7
3 -2 5 12 5 14 0 19 -2 13 -5z m54 -20 c-14 -14 -19 -15 -29 -4 -11 10 -10 11
4 6 12 -5 20 -1 24 9 4 9 9 14 12 11 3 -3 -2 -13 -11 -22z m-1490 -80 c-2 -21
-4 -6 -4 32 0 39 2 55 4 38 2 -18 2 -50 0 -70z m956 82 c-3 -9 -8 -14 -10 -11
-3 3 -2 9 2 15 9 16 15 13 8 -4z m354 -82 c-2 -21 -4 -6 -4 32 0 39 2 55 4 38
2 -18 2 -50 0 -70z m-3199 62 c-6 -14 -13 -23 -15 -21 -5 5 15 46 22 46 3 0
-1 -11 -7 -25z m202 21 c0 -2 -8 -10 -17 -17 -16 -13 -17 -12 -4 4 13 16 21
21 21 13z m1582 -28 c-8 -8 -9 -4 -5 13 4 13 8 18 11 10 2 -7 -1 -18 -6 -23z
m726 14 c-10 -2 -26 -2 -35 0 -10 2 -29 -8 -42 -22 -13 -14 -18 -17 -11 -7 9
12 9 17 1 17 -6 0 -11 5 -11 11 0 5 4 8 8 5 4 -2 13 -1 20 3 6 4 29 5 49 2 21
-3 30 -6 21 -9z m676 -125 c13 1 15 -2 7 -10 -7 -7 -15 -6 -26 3 -11 9 -15 30
-13 84 l2 71 5 -75 c5 -65 8 -75 25 -73z m239 128 c-3 -9 -8 -14 -10 -11 -3 3
-2 9 2 15 9 16 15 13 8 -4z m118 -18 l-24 -22 19 27 c10 14 21 24 23 22 3 -3
-6 -15 -18 -27z m-2956 3 c-3 -4 0 -10 7 -12 8 -3 7 -6 -3 -10 -11 -4 -15 1
-15 17 0 13 4 21 8 19 5 -3 6 -9 3 -14z m702 -17 c-3 -10 -5 -4 -5 12 0 17 2
24 5 18 2 -7 2 -21 0 -30z m870 5 c-3 -7 -5 -2 -5 12 0 14 2 19 5 13 2 -7 2
-19 0 -25z m590 -5 c-3 -10 -5 -4 -5 12 0 17 2 24 5 18 2 -7 2 -21 0 -30z
m110 0 c-3 -10 -5 -4 -5 12 0 17 2 24 5 18 2 -7 2 -21 0 -30z m-1420 -5 c-3
-7 -5 -2 -5 12 0 14 2 19 5 13 2 -7 2 -19 0 -25z m270 10 c-3 -8 -6 -5 -6 6
-1 11 2 17 5 13 3 -3 4 -12 1 -19z m1813 18 c0 -2 -8 -10 -17 -17 -16 -13 -17
-12 -4 4 13 16 21 21 21 13z m-3733 -98 c-2 -18 -4 -4 -4 32 0 36 2 50 4 33 2
-18 2 -48 0 -65z m1890 40 c-2 -13 -4 -5 -4 17 -1 22 1 32 4 23 2 -10 2 -28 0
-40z m450 0 c-2 -13 -4 -5 -4 17 -1 22 1 32 4 23 2 -10 2 -28 0 -40z m778 43
c3 -5 2 -12 -3 -15 -5 -3 -9 1 -9 9 0 17 3 19 12 6z m30 0 c3 -5 2 -12 -3 -15
-5 -3 -9 1 -9 9 0 17 3 19 12 6z m35 -12 c0 -5 -4 -9 -8 -9 -5 0 -9 7 -9 15 0
8 4 12 9 9 4 -3 8 -9 8 -15z m257 -26 c-3 -10 -5 -2 -5 17 0 19 2 27 5 18 2
-10 2 -26 0 -35z m-3032 -18 c0 -30 -3 -55 -7 -55 -5 0 -8 25 -8 55 0 30 3 55
8 55 4 0 7 -25 7 -55z m-287 38 l-57 -4 -4 -62 -3 -62 -2 68 -2 67 63 -2 62
-2 -57 -3z m225 0 c-18 -2 -48 -2 -65 0 -18 2 -4 4 32 4 36 0 50 -2 33 -4z
m420 -8 c-3 -9 -8 -14 -10 -11 -3 3 -2 9 2 15 9 16 15 13 8 -4z m2118 -2 c13
-16 12 -17 -3 -4 -17 13 -22 21 -14 21 2 0 10 -8 17 -17z m100 3 c-10 -11 -8
-15 6 -19 14 -4 13 -5 -4 -6 -25 -1 -29 9 -11 27 17 17 23 15 9 -2z m639 -1
c0 -8 -16 -33 -36 -55 -26 -29 -44 -40 -65 -40 -15 0 -30 4 -33 8 -2 4 10 6
28 4 27 -3 38 2 64 32 18 20 32 43 32 51 0 8 2 15 5 15 3 0 5 -7 5 -15z m-973
-17 c-3 -8 -6 -5 -6 6 -1 11 2 17 5 13 3 -3 4 -12 1 -19z m93 -23 c-7 -9 -7
-14 0 -17 5 -1 0 -9 -12 -17 -21 -13 -22 -13 -9 2 7 10 10 17 5 17 -4 0 -3 5
4 12 7 7 13 21 13 33 1 17 2 17 6 2 3 -10 0 -24 -7 -32z m-1595 25 c3 -5 1
-10 -4 -10 -6 0 -11 5 -11 10 0 6 2 10 4 10 3 0 8 -4 11 -10z m385 -15 c13
-14 21 -25 18 -25 -2 0 -15 11 -28 25 -13 14 -21 25 -18 25 2 0 15 -11 28 -25z
m71 2 c-10 -9 -11 -8 -5 6 3 10 9 15 12 12 3 -3 0 -11 -7 -18z m351 11 c-9 -9
-9 -15 1 -27 11 -14 10 -14 -6 -2 -13 10 -15 17 -6 27 6 8 14 14 17 14 3 0 1
-5 -6 -12z m888 -13 c14 -19 14 -19 -2 -6 -10 7 -18 18 -18 24 0 6 1 8 3 6 1
-2 9 -13 17 -24z m370 16 c0 -6 -10 -20 -22 -33 -13 -13 -17 -17 -10 -8 6 9
12 20 12 24 0 4 -6 4 -12 1 -7 -4 -4 1 6 9 23 19 26 19 26 7z m-1982 -13 c-2
-6 -12 -12 -22 -14 -14 -2 -15 0 -5 12 14 17 32 19 27 2z m246 -4 c3 -8 2 -12
-4 -9 -6 3 -10 10 -10 16 0 14 7 11 14 -7z m1026 3 c0 -8 -9 -22 -19 -31 -11
-10 -17 -25 -14 -34 4 -15 3 -15 -6 -2 -7 11 -5 20 11 37 11 12 17 26 13 32
-3 6 -1 11 4 11 6 0 11 -6 11 -13z m427 7 c-3 -3 -12 -4 -19 -1 -8 3 -5 6 6 6
11 1 17 -2 13 -5z m574 -11 c13 -16 12 -17 -3 -4 -17 13 -22 21 -14 21 2 0 10
-8 17 -17z m174 8 c-3 -6 3 -14 12 -20 10 -6 13 -11 7 -11 -15 0 -36 25 -27
33 10 10 15 8 8 -2z m-3452 -25 c8 5 7 2 -1 -7 -11 -12 -14 -12 -22 1 -5 8
-10 20 -10 25 1 6 5 2 11 -8 6 -9 16 -14 22 -11z m480 17 c3 -5 -8 -8 -23 -8
-15 0 -26 3 -23 8 2 4 13 7 23 7 10 0 21 -3 23 -7z m927 4 c0 -2 -15 -16 -32
-33 l-33 -29 29 33 c28 30 36 37 36 29z m180 -1 c0 -2 -8 -10 -17 -17 -16 -13
-17 -12 -4 4 13 16 21 21 21 13z m377 -14 c0 -10 -7 -19 -14 -19 -9 0 -10 4
-3 12 5 7 7 15 3 18 -3 4 -1 7 5 7 6 0 10 -8 9 -18z m-1312 -2 c-3 -5 -1 -10
4 -10 6 0 11 -4 11 -10 0 -5 -6 -9 -12 -7 -7 1 -12 -4 -10 -11 1 -8 -2 -11 -8
-7 -6 3 -7 12 -3 18 4 7 8 15 9 20 3 15 4 17 10 17 3 0 2 -4 -1 -10z m1175 7
c0 -2 -12 -14 -27 -28 l-28 -24 24 28 c23 25 31 32 31 24z m628 -48 c25 -2 25
-2 4 -6 -24 -5 -72 29 -72 50 0 5 9 -2 21 -17 12 -15 31 -27 47 -27z m132 31
c0 -4 -8 -14 -17 -21 -16 -13 -17 -12 -4 4 9 11 10 17 2 17 -6 0 -11 4 -11 10
0 5 7 7 15 4 8 -4 15 -10 15 -14z m755 10 c-3 -5 -16 -10 -28 -9 -20 1 -20 2
3 9 14 4 26 8 28 9 2 1 0 -3 -3 -9z m-2799 -12 c4 -6 3 -8 -3 -5 -6 4 -18 -2
-28 -13 -10 -11 -23 -20 -29 -20 -6 0 0 7 12 16 12 8 20 20 17 25 -4 5 1 9 9
9 8 0 18 -5 22 -12z m178 -3 c-4 -8 -7 -15 -9 -15 -2 0 -5 7 -9 15 -3 9 0 15
9 15 9 0 12 -6 9 -15z m151 -5 c10 -11 16 -20 13 -20 -3 0 -13 9 -23 20 -10
11 -16 20 -13 20 3 0 13 -9 23 -20z m78 13 c-7 -2 -19 -2 -25 0 -7 3 -2 5 12
5 14 0 19 -2 13 -5z m145 -18 c-3 -3 -9 2 -12 12 -6 14 -5 15 5 6 7 -7 10 -15
7 -18z m135 8 c-3 -7 -6 -13 -8 -13 -2 0 -5 6 -8 13 -3 8 1 14 8 14 7 0 11 -6
8 -14z m427 6 c0 -15 -18 -19 -23 -6 -3 8 1 14 9 14 8 0 14 -4 14 -8z m35 -9
c10 -11 16 -20 13 -20 -3 0 -13 9 -23 20 -10 11 -16 20 -13 20 3 0 13 -9 23
-20z m450 0 c10 -11 16 -20 13 -20 -3 0 -13 9 -23 20 -10 11 -16 20 -13 20 3
0 13 -9 23 -20z m528 13 c-7 -2 -19 -2 -25 0 -7 3 -2 5 12 5 14 0 19 -2 13 -5z
m63 -11 c-10 -2 -22 0 -28 6 -6 6 0 7 19 4 21 -5 23 -7 9 -10z m348 3 c-4 -8
-11 -12 -16 -9 -6 4 -5 10 3 15 19 12 19 11 13 -6z m-2457 -1 c-3 -3 -12 -4
-19 -1 -8 3 -5 6 6 6 11 1 17 -2 13 -5z m563 -19 c14 -19 14 -19 -2 -6 -10 7
-18 18 -18 24 0 6 1 8 3 6 1 -2 9 -13 17 -24z m1297 19 c-3 -3 -12 -4 -19 -1
-8 3 -5 6 6 6 11 1 17 -2 13 -5z m946 -30 c-3 -7 -10 -11 -16 -7 -8 5 -7 8 1
11 10 3 10 7 0 20 -12 15 -11 15 4 4 9 -8 14 -20 11 -28z m-2362 11 c11 6 11
5 2 -5 -12 -14 -33 -6 -33 13 0 8 3 7 9 -2 5 -8 14 -10 22 -6z m844 3 c5 4 5
1 1 -6 -6 -10 -11 -10 -22 -1 -8 6 -14 14 -14 16 0 3 6 0 13 -6 8 -6 18 -7 22
-3z m145 -3 c-7 -8 -17 -15 -23 -15 -6 0 -2 7 9 15 25 19 30 19 14 0z m-1475
-13 c-3 -3 -11 0 -18 7 -9 10 -8 11 6 5 10 -3 15 -9 12 -12z m1035 4 c-7 -7
-13 -7 -20 0 -6 6 -3 10 10 10 13 0 16 -4 10 -10z m919 -7 c-19 -12 -29 -11
-29 2 0 5 5 7 10 4 6 -3 10 -1 10 5 0 6 5 8 11 4 8 -4 7 -9 -2 -15z m516 11
c-3 -5 -12 -10 -18 -10 -7 0 -6 4 3 10 19 12 23 12 15 0z m-2900 -60 l-59 -60
-106 0 -106 0 -49 53 -50 52 50 -47 51 -48 105 0 105 0 54 55 c30 30 57 55 59
55 3 0 -21 -27 -54 -60z m788 53 c-7 -2 -21 -2 -30 0 -10 3 -4 5 12 5 17 0 24
-2 18 -5z m590 0 c-7 -2 -21 -2 -30 0 -10 3 -4 5 12 5 17 0 24 -2 18 -5z m680
0 c-7 -2 -21 -2 -30 0 -10 3 -4 5 12 5 17 0 24 -2 18 -5z m700 0 c-7 -2 -21
-2 -30 0 -10 3 -4 5 12 5 17 0 24 -2 18 -5z m580 0 c-7 -2 -21 -2 -30 0 -10 3
-4 5 12 5 17 0 24 -2 18 -5z m-842 -20 c13 -16 12 -17 -3 -4 -10 7 -18 15 -18
17 0 8 8 3 21 -13z m-2501 -6 c0 -2 -15 -16 -32 -33 l-33 -29 29 33 c28 30 36
37 36 29z m2547 -13 c-3 -3 -12 -4 -19 -1 -8 3 -5 6 6 6 11 1 17 -2 13 -5z
m-52 -32 c-3 -3 -11 0 -18 7 -9 10 -8 11 6 5 10 -3 15 -9 12 -12z m58 -9 c-7
-2 -21 -2 -30 0 -10 3 -4 5 12 5 17 0 24 -2 18 -5z m-2733 -88 c0 -12 -14 -15
-77 -13 l-78 2 73 3 c39 2 72 8 72 13 0 6 2 10 5 10 3 0 5 -7 5 -15z m125 -5
c41 0 65 4 68 13 3 7 6 5 6 -5 1 -16 -9 -18 -74 -18 -65 0 -75 2 -74 18 0 10
3 12 6 5 3 -9 27 -13 68 -13z"/>
</g>
</svg>
